<svg xmlns="http://www.w3.org/2000/svg" xmlns:xlink="http://www.w3.org/1999/xlink" width="500" zoomAndPan="magnify" viewBox="0 0 375 374.999991" height="500" preserveAspectRatio="xMidYMid meet" version="1.0"><defs><g/></defs><rect x="-37.5" width="450" fill="#ffffff" y="-37.499999" height="449.999989" fill-opacity="1"/><rect x="-37.5" width="450" fill="#ffffff" y="-37.499999" height="449.999989" fill-opacity="1"/><rect x="-37.5" width="450" fill="#121212" y="-37.499999" height="449.999989" fill-opacity="1"/><g fill="#151515" fill-opacity="1"><g transform="translate(103.106121, 266.309746)"><g><path d="M 73.546875 -202.453125 L 65.820312 -202.351562 C 51.117188 -202.007812 38.566406 -191.324219 35.726562 -176.902344 L 22.578125 -112.925781 L 19.222656 -96.984375 L -0.132812 -0.949219 L 7.355469 -1.019531 C 22.027344 -1.597656 34.609375 -12.046875 37.6875 -26.5 L 50.804688 -90.714844 L 53.957031 -106.386719 Z M 73.546875 -202.453125 "/></g></g></g><g fill="#151515" fill-opacity="1"><g transform="translate(162.644283, 254.55073)"><g><path d="M 0 -76.085938 C 0 -71.332031 2.472656 -66.957031 6.65625 -64.484375 L 118.882812 0 L 120.597656 -5.707031 C 124.019531 -16.929688 119.265625 -28.914062 109.183594 -34.808594 L 37.472656 -76.085938 L 109.183594 -117.171875 C 119.265625 -123.070312 124.019531 -135.050781 120.597656 -146.273438 L 118.882812 -152.171875 L 6.65625 -87.5 C 2.472656 -85.214844 0 -80.839844 0 -76.085938 Z M 0 -76.085938 "/></g></g></g></svg>